<svg xmlns="http://www.w3.org/2000/svg" viewBox="0 0 777.2 116.8"><defs><style>.cls-1{fill:#003644}.cls-2{fill:#39607a}.cls-3{fill:#008fb4}</style></defs><g id="Layer_2" data-name="Layer 2"><g id="Layer_1-2" data-name="Layer 1"><path class="cls-1" d="M260.3 7.2c0-3.5 1.7-5.3 5.2-5.3h6.1a6.6 6.6 0 0 1 6.4 3.5l48.2 70c4 6 9.3 16.3 9.3 16.3h.3s-1-10.1-1-16.3V7.2c0-3.5 1.9-5.3 5.3-5.3h5.1c3.5 0 5.3 1.8 5.3 5.3v102.4c0 3.5-1.8 5.3-5.3 5.3h-6.1a6.4 6.4 0 0 1-6.2-3.5l-48.3-69.8c-4-6.2-9.3-16.5-9.3-16.5h-.3s.9 10.1.9 16.5v68c0 3.5-1.7 5.3-5.2 5.3h-5.2c-3.5 0-5.2-1.8-5.2-5.3zm148.9 8.5h-33.6c-3.6 0-5.3-1.9-5.3-5.3V7.2c0-3.5 1.7-5.3 5.3-5.3h82.9c3.3 0 5.1 1.8 5.1 5.3v3.2c0 3.4-1.8 5.3-5.1 5.3h-33.6v93.9c0 3.5-2 5.3-5.3 5.3h-5.3c-3.4 0-5.1-1.8-5.1-5.3zM528.8 0c33.6 0 57.9 25.1 57.9 57.6s-24.3 59.2-57.9 59.2-58.1-25.9-58.1-59.2S495.2 0 528.8 0zm0 102.3c24 0 41.6-19.4 41.6-44.7s-17.6-43-41.6-43-41.8 18.5-41.8 43 17.8 44.7 41.8 44.7zm104-86.6h-33.6c-3.5 0-5.3-1.9-5.3-5.3V7.2c0-3.5 1.8-5.3 5.3-5.3h82.9c3.4 0 5.1 1.8 5.1 5.3v3.2c0 3.4-1.7 5.3-5.1 5.3h-33.6v93.9c0 3.5-1.9 5.3-5.3 5.3h-5.3c-3.3 0-5.1-1.8-5.1-5.3zm87.3-9.5c1-3 2.9-4.3 5.9-4.3h7.7a5.6 5.6 0 0 1 5.9 4.3l37.2 102.6c1.2 3.7-.5 6.1-4.4 6.1H767a5.6 5.6 0 0 1-5.9-4.3L751 82.4h-42.6l-9.9 28.2a5.5 5.5 0 0 1-5.7 4.3h-5.5c-4 0-5.6-2.4-4.3-6.1zm26.7 63.1l-12.4-35.9c-2-5.7-4.4-16-4.4-16h-.3s-2.5 10.3-4.5 16l-12.6 35.9z"/><path class="cls-2" d="M4.6 40.2c-3.1 0-4.6-1.5-4.6-4.6v-4.5c0-3.1 1.5-4.6 4.6-4.6h55.1c3.1 0 4.6 1.6 4.6 4.6v4.5c0 3.1-1.5 4.6-4.6 4.6z"/><path class="cls-3" d="M115.4 114.9c-3.1 0-4.7-1.5-4.7-4.6v-4.5c0-3.1 1.6-4.6 4.7-4.6h12.7c3.1 0 4.6 1.5 4.6 4.6v4.5c0 3.1-1.5 4.6-4.6 4.6z"/><path class="cls-1" d="M42.4 114.9c-3.1 0-4.6-1.5-4.6-4.6v-4.5c0-3.1 1.5-4.6 4.6-4.6h52.2c3 0 4.6 1.5 4.6 4.6v4.5c0 3.1-1.6 4.6-4.6 4.6z"/><path class="cls-3" d="M59.5 15.7c-3.1 0-4.7-1.5-4.7-4.6V6.6c0-3.1 1.6-4.6 4.7-4.6h89.4c3.1 0 4.6 1.5 4.6 4.6v4.5c0 3.1-1.5 4.6-4.6 4.6zm-28.6 49c-3.1 0-4.6-1.5-4.6-4.6v-4.5c0-3 1.5-4.6 4.6-4.6h89.4c3.1 0 4.7 1.6 4.7 4.6v4.5c0 3.1-1.6 4.6-4.7 4.6z"/><path class="cls-1" d="M233 101.1h-47.4V64.8H210c3.4 0 5.3-1.8 5.3-5.3v-3.2c0-3.5-1.9-5.3-5.3-5.3h-24.4V15.7h44.7c3.5 0 5.2-1.9 5.2-5.3V7.2c0-3.5-1.7-5.3-5.2-5.3h-55.1c-3.5 0-5.3 1.8-5.3 5.3V51h-29.5c-3.1 0-4.7 1.6-4.7 4.6v4.5c0 3.1 1.6 4.6 4.7 4.6h29.5v44.9c0 3.5 1.8 5.3 5.3 5.3H233c3.5 0 5.3-1.8 5.3-5.3v-3.2c0-3.5-1.8-5.3-5.3-5.3zM80.2 40.2c-3 0-4.6-1.5-4.6-4.6v-4.5c0-3.1 1.6-4.6 4.6-4.6h12.6c3.1 0 4.7 1.6 4.7 4.6v4.5c0 3.1-1.6 4.6-4.7 4.6z"/><path class="cls-2" d="M71.1 89.8c-3.1 0-4.6-1.5-4.6-4.6v-4.5c0-3 1.5-4.6 4.6-4.6h66.2c3 0 4.6 1.6 4.6 4.6v4.5c0 3.1-1.6 4.6-4.6 4.6z"/></g></g></svg>